# xmcd
#
# Track frame offsets: 
#        150
#        19765
#        40143
#        59239
#        83346
#        107021
#        124935
#        139966
#        157785
#        179886
#        198245
#        212829
#        229473
#        257067
#        283419
#        296373
#        308748
#        326273
#
# Disc length: 4533 seconds
#
# Revision: 0
# Processed by: cddbd v1.5.2PL0 Copyright (c) Steve Scherf et al.
# Submitted via: ExactAudioCopyFreeDBPlugin 1.0
#
DISCID=0e11b312
DTITLE=Various Artist - Bluesfest 2018
DYEAR=2018
DGENRE=Blues
TTITLE0=Lionel Richie - All Night Long
TTITLE1=Seal - Crazy
TTITLE2=Robert Plant - May Queen
TTITLE3=Sheryl Crow - If It Makes You Happy
TTITLE4=Tash Sultana - Jungle
TTITLE5=Leon Bridges - River
TTITLE6=Rag'n'bone Man - Human
TTITLE7=Newton Faulkner - Dream Catch Me
TTITLE8=Melissa Etheridge - I'm The Only One
TTITLE9=Gomez - Get Myself Arrested
TTITLE10=Jimmy Cliff - I Can See Clearly Now
TTITLE11=Chic feat. Nile Rodgers - Good Times
TTITLE12=Harts - Power
TTITLE13=Hurray For The Riff Raff - Pa'lante
TTITLE14=Canned Heat - Going Up The Country
TTITLE15=William Crighton - Happiness
TTITLE16=All Our Exes - When The Sun Comes Up
TTITLE17=Juanes - Hermosa Ingrata
EXTD=
EXTT0=
EXTT1=
EXTT2=
EXTT3=
EXTT4=
EXTT5=
EXTT6=
EXTT7=
EXTT8=
EXTT9=
EXTT10=
EXTT11=
EXTT12=
EXTT13=
EXTT14=
EXTT15=
EXTT16=
EXTT17=
PLAYORDER=
